<svg id="Layer_1" data-name="Layer 1" xmlns="http://www.w3.org/2000/svg" viewBox="0 0 1800 720"><defs><style>.cls-1{fill:#333;}.cls-2{font-size:192px;fill:#009789;font-family:LucidaBright-Demi, Lucida Bright;font-weight:300;}.cls-3{fill:#231f20;}</style></defs><path class="cls-1" d="M198.55,456.22l-3.94,89.07C256.55,596.9,351.43,612,439,593.09l-24.47-79Z"/><path class="cls-1" d="M427.66,517.62l-.8-.22,22.68,73.24C521.75,572.7,587.8,531.42,624.6,468.26L587.88,371Z"/><path d="M302.64,152.86C244.18,173.19,183.27,245.29,8.9,405.41l189.65,50.81,216,57.88-3.28-10.57Z"/><path d="M313,149.8,422.07,502l4.79,15.44.8.22L587.88,371l135-123.53C457.5,185.46,382.36,132.81,313,149.8Z"/><text class="cls-2" transform="translate(775.9 435.07)">Edu<tspan class="cls-3" x="366.09" y="0">Watch</tspan></text></svg>