<svg id="Layer_1" data-name="Layer 1" xmlns="http://www.w3.org/2000/svg" viewBox="0 0 1800 720"><defs><style>.cls-1{fill:#f5f5f5;}.cls-2{fill:#fff;}.cls-3{font-size:192px;fill:#009789;font-family:LucidaBright-Demi, Lucida Bright;font-weight:300;}</style></defs><path class="cls-1" d="M198.55,442.8l-3.94,89.06c61.94,51.62,156.82,66.67,244.39,47.81l-24.47-79Z"/><path class="cls-1" d="M427.66,504.19l-.8-.22,22.68,73.25c72.21-18,138.26-59.22,175.06-122.38l-36.72-97.23Z"/><path class="cls-2" d="M302.64,139.44C244.18,159.76,183.27,231.86,8.9,392L198.55,442.8l216,57.87-3.28-10.57Z"/><path class="cls-2" d="M313,136.37,422.07,488.53,426.86,504l.8.22L587.88,357.61l135-123.52C457.5,172,382.36,119.39,313,136.37Z"/><text class="cls-3" transform="translate(775.9 435.07)">Edu<tspan class="cls-2" x="366.09" y="0">Watch</tspan></text></svg>